<mxfile host="app.diagrams.net" agent="Mozilla/5.0 (Macintosh; Intel Mac OS X 10_15_7) AppleWebKit/537.36 (KHTML, like Gecko) Chrome/131.0.0.0 Safari/537.36 Edg/131.0.0.0" version="24.9.0">
  <diagram name="第 1 页" id="reyXp4Kh8w-tT1RUz250">
    <mxGraphModel dx="2385" dy="902" grid="1" gridSize="10" guides="1" tooltips="1" connect="1" arrows="1" fold="1" page="1" pageScale="1" pageWidth="827" pageHeight="1169" math="0" shadow="0">
      <root>
        <mxCell id="0" />
        <mxCell id="1" parent="0" />
        <mxCell id="QI-PmDlZO7ux3QnmJBiv-2" value="" style="rounded=0;whiteSpace=wrap;html=1;" parent="1" vertex="1">
          <mxGeometry x="-799.99" y="10" width="1300" height="790" as="geometry" />
        </mxCell>
        <mxCell id="QI-PmDlZO7ux3QnmJBiv-17" value="" style="endArrow=classic;html=1;rounded=0;entryX=0.5;entryY=0;entryDx=0;entryDy=0;exitX=1;exitY=0.5;exitDx=0;exitDy=0;" parent="1" source="QI-PmDlZO7ux3QnmJBiv-6" target="QI-PmDlZO7ux3QnmJBiv-14" edge="1">
          <mxGeometry width="50" height="50" relative="1" as="geometry">
            <mxPoint x="50" y="430" as="sourcePoint" />
            <mxPoint x="100" y="380" as="targetPoint" />
          </mxGeometry>
        </mxCell>
        <mxCell id="QI-PmDlZO7ux3QnmJBiv-18" value="&lt;font style=&quot;font-size: 24px;&quot;&gt;LLM-RAG (ABA)&lt;/font&gt;" style="rounded=1;whiteSpace=wrap;html=1;fillColor=#f5f5f5;fontColor=#333333;strokeColor=#666666;" parent="1" vertex="1">
          <mxGeometry x="-250" y="410" width="200" height="110" as="geometry" />
        </mxCell>
        <mxCell id="QI-PmDlZO7ux3QnmJBiv-19" value="" style="shape=flexArrow;endArrow=classic;html=1;rounded=0;entryX=1;entryY=0.5;entryDx=0;entryDy=0;fillColor=#d5e8d4;strokeColor=#82b366;exitX=0;exitY=0.5;exitDx=0;exitDy=0;" parent="1" source="QI-PmDlZO7ux3QnmJBiv-14" target="QI-PmDlZO7ux3QnmJBiv-18" edge="1">
          <mxGeometry width="50" height="50" relative="1" as="geometry">
            <mxPoint x="77" y="460" as="sourcePoint" />
            <mxPoint x="20" y="380" as="targetPoint" />
          </mxGeometry>
        </mxCell>
        <mxCell id="QI-PmDlZO7ux3QnmJBiv-24" value="" style="shape=flexArrow;endArrow=classic;html=1;rounded=0;entryX=1;entryY=0.5;entryDx=0;entryDy=0;fillColor=#d5e8d4;strokeColor=#82b366;exitX=0;exitY=0.5;exitDx=0;exitDy=0;" parent="1" source="QI-PmDlZO7ux3QnmJBiv-18" target="QI-PmDlZO7ux3QnmJBiv-23" edge="1">
          <mxGeometry width="50" height="50" relative="1" as="geometry">
            <mxPoint x="-270" y="455" as="sourcePoint" />
            <mxPoint x="-377" y="454.44" as="targetPoint" />
          </mxGeometry>
        </mxCell>
        <mxCell id="QI-PmDlZO7ux3QnmJBiv-25" value="" style="endArrow=classic;html=1;rounded=0;entryX=0;entryY=0.5;entryDx=0;entryDy=0;exitX=0.5;exitY=0;exitDx=0;exitDy=0;" parent="1" source="QI-PmDlZO7ux3QnmJBiv-23" target="QI-PmDlZO7ux3QnmJBiv-6" edge="1">
          <mxGeometry width="50" height="50" relative="1" as="geometry">
            <mxPoint x="-400" y="400" as="sourcePoint" />
            <mxPoint x="-350" y="350" as="targetPoint" />
          </mxGeometry>
        </mxCell>
        <mxCell id="QI-PmDlZO7ux3QnmJBiv-26" value="&lt;font style=&quot;font-size: 32px;&quot;&gt;ABA System&lt;/font&gt;" style="text;strokeColor=none;fillColor=none;html=1;fontSize=24;fontStyle=1;verticalAlign=middle;align=center;" parent="1" vertex="1">
          <mxGeometry x="330" y="40" width="100" height="40" as="geometry" />
        </mxCell>
        <mxCell id="QI-PmDlZO7ux3QnmJBiv-27" value="&lt;font style=&quot;font-size: 19px;&quot;&gt;&lt;b&gt;Student record&lt;/b&gt;&lt;/font&gt;&lt;div&gt;&lt;font style=&quot;font-size: 19px;&quot;&gt;&lt;b&gt;Existing tasks database&lt;/b&gt;&lt;/font&gt;&lt;/div&gt;&lt;div&gt;&lt;br&gt;&lt;/div&gt;" style="shape=cylinder3;whiteSpace=wrap;html=1;boundedLbl=1;backgroundOutline=1;size=15;fillColor=#f5f5f5;strokeColor=#666666;fontColor=#333333;" parent="1" vertex="1">
          <mxGeometry x="-281.87" y="600" width="263.75" height="170" as="geometry" />
        </mxCell>
        <mxCell id="QI-PmDlZO7ux3QnmJBiv-28" value="" style="shape=flexArrow;endArrow=classic;html=1;rounded=0;exitX=0.5;exitY=0;exitDx=0;exitDy=0;exitPerimeter=0;entryX=0.5;entryY=1;entryDx=0;entryDy=0;fillColor=#ffe6cc;strokeColor=#d79b00;" parent="1" source="QI-PmDlZO7ux3QnmJBiv-27" target="QI-PmDlZO7ux3QnmJBiv-18" edge="1">
          <mxGeometry width="50" height="50" relative="1" as="geometry">
            <mxPoint x="-130" y="500" as="sourcePoint" />
            <mxPoint x="-80" y="450" as="targetPoint" />
          </mxGeometry>
        </mxCell>
        <mxCell id="QI-PmDlZO7ux3QnmJBiv-6" value="" style="rounded=1;whiteSpace=wrap;html=1;fillColor=#f5f5f5;fontColor=#333333;strokeColor=#666666;" parent="1" vertex="1">
          <mxGeometry x="-313.99" y="50" width="328" height="230.00000000000003" as="geometry" />
        </mxCell>
        <mxCell id="QI-PmDlZO7ux3QnmJBiv-3" value="&lt;b&gt;&lt;font style=&quot;font-size: 18px;&quot;&gt;Behavior&lt;/font&gt;&lt;/b&gt;&lt;div&gt;&lt;font style=&quot;font-size: 18px;&quot;&gt;(Student performs the task)&lt;/font&gt;&lt;/div&gt;" style="ellipse;whiteSpace=wrap;html=1;" parent="1" vertex="1">
          <mxGeometry x="-271.54999999999995" y="60" width="243.09" height="184.67" as="geometry" />
        </mxCell>
        <mxCell id="QI-PmDlZO7ux3QnmJBiv-8" value="&lt;font style=&quot;font-size: 19px;&quot;&gt;Recording everything&lt;/font&gt;" style="text;strokeColor=none;fillColor=none;html=1;fontSize=24;fontStyle=1;verticalAlign=middle;align=center;" parent="1" vertex="1">
          <mxGeometry x="-213.0769230769231" y="229.9966666666667" width="126.15384615384615" height="61.333333333333336" as="geometry" />
        </mxCell>
        <mxCell id="QI-PmDlZO7ux3QnmJBiv-23" value="" style="rounded=1;whiteSpace=wrap;html=1;fillColor=#f5f5f5;fontColor=#333333;strokeColor=#666666;" parent="1" vertex="1">
          <mxGeometry x="-680" y="350" width="328.00000000000006" height="229.99999999999997" as="geometry" />
        </mxCell>
        <mxCell id="QI-PmDlZO7ux3QnmJBiv-21" value="&lt;b&gt;&lt;font style=&quot;font-size: 18px;&quot;&gt;Antecedance&lt;/font&gt;&lt;/b&gt;&lt;div&gt;&lt;p style=&quot;margin: 0px; font-variant-numeric: normal; font-variant-east-asian: normal; font-variant-alternates: normal; font-size-adjust: none; font-kerning: auto; font-optical-sizing: auto; font-feature-settings: normal; font-variation-settings: normal; font-variant-position: normal; font-variant-emoji: normal; font-stretch: normal; line-height: normal;&quot; class=&quot;p1&quot;&gt;&lt;font style=&quot;font-size: 18px;&quot;&gt;(The generated task is&lt;/font&gt;&lt;/p&gt;&lt;p style=&quot;margin: 0px; font-variant-numeric: normal; font-variant-east-asian: normal; font-variant-alternates: normal; font-size-adjust: none; font-kerning: auto; font-optical-sizing: auto; font-feature-settings: normal; font-variation-settings: normal; font-variant-position: normal; font-variant-emoji: normal; font-stretch: normal; line-height: normal;&quot; class=&quot;p1&quot;&gt;&lt;font style=&quot;font-size: 18px;&quot;&gt;used by therapist)&lt;/font&gt;&lt;/p&gt;&lt;/div&gt;" style="ellipse;whiteSpace=wrap;html=1;align=center;" parent="1" vertex="1">
          <mxGeometry x="-657.74" y="357.5" width="283.48" height="170" as="geometry" />
        </mxCell>
        <mxCell id="QI-PmDlZO7ux3QnmJBiv-22" value="&lt;font style=&quot;font-size: 19px;&quot;&gt;Showing all history generated task&amp;nbsp;&lt;/font&gt;&lt;div&gt;&lt;font style=&quot;font-size: 19px;&quot;&gt;and commend&lt;/font&gt;&lt;/div&gt;" style="text;strokeColor=none;fillColor=none;html=1;fontSize=24;fontStyle=1;verticalAlign=middle;align=center;" parent="1" vertex="1">
          <mxGeometry x="-579.0769230769231" y="530.0031578947369" width="126.15384615384615" height="48.42105263157894" as="geometry" />
        </mxCell>
        <mxCell id="QI-PmDlZO7ux3QnmJBiv-14" value="" style="rounded=1;whiteSpace=wrap;html=1;fillColor=#f5f5f5;fontColor=#333333;strokeColor=#666666;" parent="1" vertex="1">
          <mxGeometry x="44" y="350" width="328" height="230" as="geometry" />
        </mxCell>
        <mxCell id="QI-PmDlZO7ux3QnmJBiv-12" value="&lt;b&gt;&lt;font style=&quot;font-size: 18px;&quot;&gt;Consequence&lt;/font&gt;&lt;/b&gt;&lt;div&gt;&lt;p style=&quot;margin: 0px; font-variant-numeric: normal; font-variant-east-asian: normal; font-variant-alternates: normal; font-size-adjust: none; font-kerning: auto; font-optical-sizing: auto; font-feature-settings: normal; font-variation-settings: normal; font-variant-position: normal; font-variant-emoji: normal; font-stretch: normal; line-height: normal;&quot; class=&quot;p1&quot;&gt;&lt;font style=&quot;font-size: 18px;&quot;&gt;(Therapist assessment&amp;nbsp;&lt;span style=&quot;background-color: initial;&quot;&gt;[+,-,OT,P]; student’s physiological&amp;nbsp;&lt;/span&gt;&lt;span style=&quot;background-color: initial;&quot;&gt;condition [e.g., GSR])&lt;/span&gt;&lt;/font&gt;&lt;/p&gt;&lt;/div&gt;" style="ellipse;whiteSpace=wrap;html=1;align=center;" parent="1" vertex="1">
          <mxGeometry x="70" y="357.5" width="276" height="172.5" as="geometry" />
        </mxCell>
        <mxCell id="QI-PmDlZO7ux3QnmJBiv-13" value="&lt;font style=&quot;font-size: 19px;&quot;&gt;Display Data and Filter&lt;/font&gt;" style="text;strokeColor=none;fillColor=none;html=1;fontSize=24;fontStyle=1;verticalAlign=middle;align=center;" parent="1" vertex="1">
          <mxGeometry x="158" y="540" width="100" height="40" as="geometry" />
        </mxCell>
        <mxCell id="QI-PmDlZO7ux3QnmJBiv-15" value="&lt;font style=&quot;font-size: 18px;&quot;&gt;[posterior input]&lt;/font&gt;" style="text;whiteSpace=wrap;html=1;" parent="1" vertex="1">
          <mxGeometry x="220" y="357.5" width="144" height="40" as="geometry" />
        </mxCell>
      </root>
    </mxGraphModel>
  </diagram>
</mxfile>
